solid Box1
  facet normal -7.071068e-01 0.000000e+00 -7.071068e-01
    outer loop
      vertex -1.666667e+00 -5.000000e+00 1.666667e+00
      vertex -5.000000e+00 -5.000000e+00 5.000000e+00
      vertex -5.000000e+00 -1.666667e+00 5.000000e+00
    endloop
  endfacet
  facet normal 0.000000e+00 -1.000000e+00 0.000000e+00
    outer loop
      vertex -5.000000e+00 -5.000000e+00 5.000000e+00
      vertex -1.666667e+00 -5.000000e+00 1.666667e+00
      vertex -1.666667e+00 -5.000000e+00 5.000000e+00
    endloop
  endfacet
  facet normal 7.071068e-01 7.071068e-01 -0.000000e+00
    outer loop
      vertex -1.666667e+00 -5.000000e+00 1.666667e+00
      vertex -5.000000e+00 -1.666667e+00 5.000000e+00
      vertex -1.666667e+00 -5.000000e+00 5.000000e+00
    endloop
  endfacet
  facet normal 0.000000e+00 0.000000e+00 1.000000e+00
    outer loop
      vertex -1.666667e+00 -5.000000e+00 5.000000e+00
      vertex -5.000000e+00 -1.666667e+00 5.000000e+00
      vertex -5.000000e+00 -5.000000e+00 5.000000e+00
    endloop
  endfacet
endsolid Box1
